REM MD5 adcd0e8586b8cdda2aa33d8c02a4def7
FILE "Interactive CD Sampler Disc 6 (USA).bin" BINARY
  TRACK 01 MODE2/2352
    INDEX 01 00:00:00
  TRACK 02 AUDIO
    INDEX 00 54:56:05
    INDEX 01 54:58:05
  TRACK 03 AUDIO
    INDEX 00 56:53:05
    INDEX 01 56:55:05
  TRACK 04 AUDIO
    INDEX 00 59:53:67
    INDEX 01 59:55:67
REM LEADOUT 60:34:40
